/vscmnt/brussel_pixiu_data/_data_brussel/112/vsc11236/PredSimResults/SUBJ07mtu3D/worker4.mot
version=1
nRows=4
nColumns=50
inDegrees=yes
endheader
                time	         pelvis_tilt	         pelvis_list	     pelvis_rotation	           pelvis_tx	           pelvis_ty	           pelvis_tz	       hip_flexion_r	     hip_adduction_r	      hip_rotation_r	        knee_angle_r	       ankle_angle_r	         mtp_angle_r	       hip_flexion_l	     hip_adduction_l	      hip_rotation_l	        knee_angle_l	       ankle_angle_l	         mtp_angle_l	    lumbar_extension	      lumbar_bending	     lumbar_rotation	 ercspn_r/activation	 intobl_r/activation	 extobl_r/activation	    abd_r/activation	    add_r/activation	hamstrings_r/activation	bifemsh_r/activation	glut_max_r/activation	iliopsoas_r/activation	rect_fem_r/activation	  vasti_r/activation	gastroc_r/activation	 soleus_r/activation	tib_ant_r/activation	 ercspn_l/activation	 intobl_l/activation	 extobl_l/activation	    abd_l/activation	    add_l/activation	hamstrings_l/activation	bifemsh_l/activation	glut_max_l/activation	iliopsoas_l/activation	rect_fem_l/activation	  vasti_l/activation	gastroc_l/activation	 soleus_l/activation	tib_ant_l/activation	
          0.00000000	         -5.13903142	          0.04795077	          7.94175815	          0.00000000	          0.85034089	         -0.01190060	         29.84510787	         -2.04919478	         -2.56875556	         -4.72391092	          2.70179482	          0.27407161	        -13.10549798	          0.74101810	          5.51440246	         -7.98172136	          8.58803080	         25.81377713	        -10.34317975	         -1.75244505	         -2.44121654	          0.10699526	          0.14852790	          0.00999999	          0.02916908	          0.10843109	          0.04022113	          0.14155391	          0.06834553	          0.02246553	          0.01391723	          0.00999999	          0.00999999	          0.00999999	          0.41861148	          0.09324499	          0.00999999	          0.00999999	          0.03751570	          0.00999999	          0.01000001	          0.13480080	          0.01788023	          0.08707434	          0.01000006	          0.00999999	          0.15741448	          0.24102265	          0.01391724	
          0.01078283	         -5.13841452	          0.10704306	          7.98218265	          0.01540392	          0.84874638	         -0.01188553	         29.63566587	         -1.89898294	         -2.38298752	         -6.19016142	          2.44493263	          0.25857138	        -13.63799426	          0.71840653	          5.22558349	         -8.90319655	          7.79437008	         27.33704540	        -10.20597983	         -1.36510349	         -2.64217274	          0.09069594	          0.12590163	          0.00999999	          0.02472556	          0.09191304	          0.04390639	          0.13080607	          0.11901265	          0.01904320	          0.01179713	          0.00999999	          0.02041597	          0.01641836	          0.44055292	          0.11167628	          0.00999999	          0.01000000	          0.03180068	          0.01508403	          0.01983711	          0.11426567	          0.01515641	          0.07380971	          0.00999999	          0.00999999	          0.13343446	          0.21434014	          0.01179713	
          0.02156567	         -5.13649914	          0.15095634	          7.97519832	          0.03089740	          0.84734686	         -0.01181198	         29.36716138	         -1.78966024	         -2.20493391	         -7.59401816	          2.09465289	          0.25208741	        -14.01074975	          0.69845800	          4.90347289	        -10.11904548	          6.92951312	         28.80937054	        -10.06735518	         -0.95310387	         -2.82676763	          0.11368097	          0.10672217	          0.00999999	          0.10070951	          0.10279945	          0.04579322	          0.11517693	          0.12503098	          0.01614222	          0.00999999	          0.00999999	          0.01730587	          0.01391723	          0.48531285	          0.12636016	          0.00999999	          0.00999999	          0.02695626	          0.01278618	          0.01681519	          0.09685880	          0.01284753	          0.06256577	          0.00999999	          0.00999999	          0.11310747	          0.18168823	          0.00999999	
          0.03234850	         -5.13514216	          0.20190354	          7.92392589	          0.04630403	          0.84632133	         -0.01165155	         29.10086660	         -1.68785072	         -2.07687098	         -8.96971893	          1.74161429	          0.22931184	        -14.14297509	          0.70710284	          4.55827626	        -11.74389797	          5.95750715	         30.19386424	         -9.94841279	         -0.54654686	         -2.99500009	          0.12271796	          0.09046445	          0.00999999	          0.14888640	          0.12833081	          0.04277755	          0.09763124	          0.15269735	          0.01368316	          0.00999999	          0.00999999	          0.01466955	          0.01179713	          0.50434701	          0.16564089	          0.00999999	          0.00999999	          0.02284983	          0.01600579	          0.01425362	          0.08210363	          0.01089038	          0.05303469	          0.00999999	          0.00999999	          0.09587703	          0.15401042	          0.00999999	
